<svg width="24" height="24" viewBox="0 0 24 24" fill="none" xmlns="http://www.w3.org/2000/svg">
<g clip-path="url(#clip0_596_907)">
<path d="M22.9106 11.988C22.9106 10.6418 22.0113 9.56181 20.8327 9.21337L19.5805 8.84311L20.2041 7.69583C20.7911 6.61606 20.6633 5.21651 19.7114 4.26463C18.7595 3.31273 17.3599 3.18491 16.2802 3.77186L15.1329 4.39556L14.7627 3.1433C14.4142 1.96476 13.3342 1.06549 11.988 1.06549C10.6418 1.06549 9.56178 1.96477 9.21333 3.1433L8.84311 4.39556L7.69583 3.77191C6.61608 3.18495 5.21652 3.31274 4.26463 4.26463C3.31274 5.21652 3.18495 6.61608 3.77191 7.69583L4.39556 8.84311L3.1433 9.21333C1.97397 9.55906 1.07955 10.625 1.06566 11.9565L1.06549 11.988C1.06549 13.3342 1.96476 14.4142 3.1433 14.7627L4.39556 15.1329L3.77186 16.2802C3.18491 17.3599 3.31273 18.7595 4.26463 19.7114C5.21651 20.6633 6.61607 20.7911 7.69583 20.2041L8.84311 19.5805L9.21337 20.8327C9.56181 22.0113 10.6418 22.9106 11.988 22.9106V23.9669C10.144 23.9669 8.67287 22.7304 8.20036 21.1322C6.73614 21.9282 4.82158 21.7623 3.51768 20.4584C2.21378 19.1545 2.04784 17.2399 2.84381 15.7757C1.24563 15.3031 0.00915555 13.832 0.00915527 11.988C0.0091553 10.144 1.24563 8.67288 2.84381 8.20036C2.04786 6.73615 2.21379 4.82158 3.51768 3.51768C4.82158 2.21379 6.73615 2.04786 8.20036 2.84381C8.67288 1.24563 10.144 0.00915556 11.988 0.00915527C13.832 0.00915527 15.3031 1.24564 15.7757 2.84381C17.2399 2.04784 19.1545 2.21378 20.4584 3.51768C21.7623 4.82158 21.9282 6.73614 21.1322 8.20036C22.7304 8.67287 23.9669 10.144 23.9669 11.988C23.9669 13.832 22.7304 15.3031 21.1322 15.7757C21.9282 17.2399 21.7623 19.1545 20.4584 20.4584C19.1545 21.7623 17.2399 21.9282 15.7757 21.1322C15.3031 22.7304 13.832 23.9669 11.988 23.9669V22.9106C13.3342 22.9106 14.4142 22.0113 14.7626 20.8327L15.1329 19.5805L16.2802 20.2042C17.3599 20.7911 18.7595 20.6633 19.7114 19.7114C20.6633 18.7595 20.7911 17.3599 20.2042 16.2802L19.5805 15.1329L20.8327 14.7626C22.0021 14.4169 22.8965 13.351 22.9104 12.0195L22.9106 11.988Z" fill="#FF6900"/>
<path d="M7.37159 13.5625C5.92271 13.3737 5.02734 12.2085 5.21574 10.7568L5.26511 10.3764L6.64404 10.556L6.59467 10.9365C6.49072 11.7374 6.86891 12.3466 7.51841 12.4312C8.1679 12.5158 8.67772 12.0325 8.78297 11.2216L9.39103 6.53624L10.77 6.71588L10.1619 11.4012C9.9722 12.8629 8.82046 13.7512 7.37159 13.5625Z" fill="#FF6900"/>
<path d="M6.59467 10.9365L6.64404 10.556L5.26511 10.3764L5.21574 10.7568L5.21151 10.7908C5.0427 12.2153 5.92004 13.3571 7.33773 13.5579L7.37159 13.5625C8.80915 13.7498 9.9542 12.8767 10.1573 11.4353L10.1619 11.4012L10.77 6.71588L9.39103 6.53624L8.78297 11.2216L8.77773 11.2593C8.66175 12.0474 8.15776 12.5145 7.51841 12.4312L7.55573 12.1436C7.79388 12.1747 7.99664 12.1035 8.15518 11.9522C8.31845 11.7964 8.44977 11.5398 8.49593 11.1842L9.14131 6.21127L11.0943 6.46571L10.4489 11.4386C10.3452 12.2382 9.97488 12.8978 9.41582 13.3303C8.85672 13.7628 8.12783 13.9535 7.33426 13.8501C5.72687 13.6407 4.7197 12.3299 4.92871 10.7194L5.01541 10.0514L6.9684 10.3059L6.88171 10.9739C6.83649 11.3223 6.89924 11.6045 7.01999 11.7996C7.13779 11.99 7.31886 12.1128 7.55573 12.1436L7.51841 12.4312L7.48815 12.4269C6.86722 12.3291 6.504 11.7439 6.59015 10.9739L6.59467 10.9365Z" fill="#FF6900"/>
<path d="M12.5914 16.5309L11.5902 9.53553L12.9667 9.33778L13.3672 12.1359L16.16 11.7347L15.7595 8.93654L17.136 8.73878L18.1372 15.7342L16.7607 15.9319L16.3216 12.864L13.5288 13.2652L13.9679 16.3332L12.5914 16.5309Z" fill="#FF6900"/>
<path d="M12.9667 9.33778L11.5902 9.53553L12.5914 16.5309L13.9679 16.3332L13.5288 13.2652L16.3216 12.864L16.7607 15.9319L18.1372 15.7342L17.136 8.73878L15.7595 8.93654L16.16 11.7347L13.3672 12.1359L12.9667 9.33778ZM18.4647 15.9801L16.5153 16.2602L16.0762 13.1922L13.8564 13.5111L14.2955 16.5791L12.346 16.8592L11.2626 9.28964L13.2121 9.00956L13.6126 11.8077L15.8324 11.4888L15.4319 8.69064L17.3814 8.41056L18.4647 15.9801Z" fill="#FF6900"/>
</g>
<defs>
<clipPath id="clip0_596_907">
<rect width="24" height="24" fill="white"/>
</clipPath>
</defs>
</svg>
